<svg width="20" height="20" viewBox="0 0 20 20" fill="none" xmlns="http://www.w3.org/2000/svg">
<g clip-path="url(#clip0_21_427)">
<path d="M18.8616 3.28133C18.5792 2.99859 18.2441 2.8572 17.8572 2.8572H16.4288V1.78573C16.4288 1.29475 16.2538 0.874336 15.9041 0.524633C15.5543 0.17493 15.1341 0 14.6429 0H13.9288C13.4376 0 13.0173 0.17493 12.6675 0.524672C12.3177 0.874336 12.1429 1.29479 12.1429 1.78577V2.85724H7.85739V1.78577C7.85739 1.29479 7.68246 0.874375 7.33272 0.524672C6.98306 0.17493 6.56268 0 6.0715 0H5.35728C4.86623 0 4.44581 0.17493 4.09607 0.524672C3.74641 0.874336 3.57144 1.29479 3.57144 1.78577V2.85724H2.14299C1.756 2.85724 1.42123 2.99863 1.13849 3.28137C0.855746 3.56407 0.714355 3.899 0.714355 4.28588V18.5716C0.714355 18.9582 0.855746 19.293 1.13849 19.5759C1.42119 19.8586 1.75596 20 2.14299 20H17.8569C18.2438 20 18.5789 19.8587 18.8613 19.5759C19.1441 19.2932 19.2855 18.9582 19.2855 18.5716V4.28584C19.2855 3.89884 19.1442 3.56407 18.8616 3.28133ZM5.35717 18.5714H2.14299V15.357H5.35717V18.5714ZM5.35717 14.6429H2.14299V11.0717H5.35717V14.6429ZM5.35717 10.3571H2.14299V7.14292H5.35717V10.3571ZM5.10621 5.25114C5.03549 5.18042 5.00019 5.09689 5.00019 5.00006V1.78589C5.00019 1.68918 5.03549 1.60541 5.10621 1.53481C5.17692 1.46409 5.26046 1.42879 5.35728 1.42879H6.0715C6.16821 1.42879 6.25199 1.46409 6.32258 1.53481C6.3933 1.60544 6.42867 1.68918 6.42867 1.78589V5.00006C6.42867 5.09692 6.39314 5.18046 6.32258 5.25114C6.25195 5.32185 6.16833 5.35715 6.0715 5.35715H5.35728C5.26057 5.35719 5.17692 5.32185 5.10621 5.25114ZM9.64289 18.5714H6.07139V15.357H9.64289V18.5714ZM9.64289 14.6429H6.07139V11.0717H9.64289V14.6429ZM9.64289 10.3571H6.07139V7.14292H9.64289V10.3571ZM13.9288 18.5714H10.3573V15.357H13.9288V18.5714ZM13.9288 14.6429H10.3573V11.0717H13.9288V14.6429ZM13.9288 10.3571H10.3573V7.14292H13.9288V10.3571ZM13.6775 5.25114C13.6069 5.18042 13.5717 5.09689 13.5717 5.00006V1.78589C13.5717 1.68918 13.6069 1.60541 13.6775 1.53481C13.7482 1.46409 13.8319 1.42879 13.9288 1.42879H14.6429C14.7397 1.42879 14.8233 1.46409 14.8941 1.53481C14.9648 1.60544 14.9999 1.68918 14.9999 1.78589V5.00006C14.9999 5.09692 14.9646 5.18046 14.8941 5.25114C14.8235 5.32185 14.7397 5.35715 14.6429 5.35715H13.9288C13.8319 5.35719 13.7479 5.32185 13.6775 5.25114ZM17.8569 18.5714H14.6426V15.357H17.8569V18.5714ZM17.8569 14.6429H14.6426V11.0717H17.8569V14.6429ZM17.8569 10.3571H14.6426V7.14292H17.8569V10.3571Z" fill="#653FFF"/>
</g>
<defs>
<clipPath id="clip0_21_427">
<rect width="20" height="20" fill="white"/>
</clipPath>
</defs>
</svg>
