<svg width="290" height="56" viewBox="0 0 290 56" fill="none" xmlns="http://www.w3.org/2000/svg">
<g clip-path="url(#clip0_12_151)">
<path d="M38.95 56.5C37.45 56.5 35.9667 56.0667 34.5 55.2C33.0667 54.3667 31.2333 53.0667 29 51.3C27.3333 49.9667 25.9 48.8833 24.7 48.05C23.5333 47.25 22.25 46.5667 20.85 46C19.4833 45.4333 18.0833 45.15 16.65 45.15C16.15 45.15 15.7667 45.1667 15.5 45.2L22.95 10.55C20.7167 11.45 18.9833 12.8333 17.75 14.7C16.55 16.5333 15.95 18.7833 15.95 21.45C15.95 22.6833 16.0667 23.55 16.3 24.05C16.5333 24.5167 16.65 24.7833 16.65 24.85C14.85 24.85 13.5 24.4833 12.6 23.75C11.7333 22.9833 11.3 21.7333 11.3 20C11.3 17.8667 12.1667 15.8 13.9 13.8C15.6667 11.7667 17.9167 10.1333 20.65 8.9C23.3833 7.63333 26.1167 7 28.85 7C29.3167 7 29.9833 7.03333 30.85 7.1L23.15 43C24.0833 43.2333 25.0333 43.5667 26 44C27 44.4667 28.2 45.0833 29.6 45.85C31.7667 47.0167 33.6167 47.9 35.15 48.5C36.6833 49.1333 38.2833 49.45 39.95 49.45C41.45 49.45 42.85 49.1833 44.15 48.65C43.8833 51.0833 43.2833 53 42.35 54.4C41.45 55.8 40.3167 56.5 38.95 56.5ZM41.5453 10.6C39.4453 10.6667 37.8286 11.4667 36.6953 13C35.5953 14.5333 35.0453 17.1833 35.0453 20.95C35.0453 22.1833 35.162 23.05 35.3953 23.55C35.6286 24.0167 35.7453 24.2833 35.7453 24.35C33.9453 24.35 32.5953 23.9833 31.6953 23.25C30.8286 22.4833 30.3953 21.2333 30.3953 19.5C30.3953 17.1333 30.9786 14.9833 32.1453 13.05C33.312 11.0833 35.162 9.5 37.6953 8.3C40.262 7.1 43.512 6.5 47.4453 6.5C48.2453 6.5 49.312 6.58333 50.6453 6.75C53.0453 6.98333 54.7453 7.1 55.7453 7.1C57.512 7.1 59.012 6.9 60.2453 6.5C60.1453 6.8 59.962 7.46666 59.6953 8.5C59.4286 9.5 58.9453 10.3667 58.2453 11.1C57.5786 11.8 56.662 12.2667 55.4953 12.5C53.5286 12.5 51.1953 12.1833 48.4953 11.55L46.3953 21.5H53.6953L52.8953 25.2H45.5953L41.5453 44H34.3453L41.5453 10.6Z" fill="#FF3F3F"/>
<path d="M74.6344 49.7C73.401 49.7 72.3177 49.6 71.3844 49.4C70.451 49.2 69.6344 48.7167 68.9344 47.95C68.2677 47.1833 67.9344 46 67.9344 44.4C67.9344 42.1667 68.601 39.1667 69.9344 35.4C71.301 31.6333 73.0844 27.85 75.2844 24.05C73.6177 24.15 72.301 24.4 71.3344 24.8C70.3677 25.2 69.7344 25.8167 69.4344 26.65C69.5677 26.65 69.701 26.8167 69.8344 27.15C70.001 27.4833 70.0844 27.8333 70.0844 28.2C70.0844 28.8 69.8177 29.2833 69.2844 29.65C68.751 29.9833 68.0844 30.15 67.2844 30.15C66.351 30.15 65.601 29.9 65.0344 29.4C64.4677 28.9 64.1844 28.1833 64.1844 27.25C64.1844 26.1167 64.6177 25.0833 65.4844 24.15C66.3844 23.2167 67.6177 22.4833 69.1844 21.95C70.751 21.3833 72.4844 21.1 74.3844 21.1C75.0844 21.1 75.951 21.15 76.9844 21.25C79.7177 16.9167 82.601 13.3833 85.6344 10.65C88.701 7.88333 91.6177 6.5 94.3844 6.5C95.9844 6.5 97.301 6.73333 98.3344 7.2L90.4844 44H83.2844L87.1344 25.85C85.901 25.2833 84.7677 24.8667 83.7344 24.6C82.701 24.3333 81.601 24.15 80.4344 24.05C78.5344 28.15 76.9677 32.35 75.7344 36.65C74.5344 40.9167 73.9344 44.3333 73.9344 46.9C73.9344 48.1667 74.1677 49.1 74.6344 49.7ZM90.4844 10.05C89.051 10.8167 87.551 12.25 85.9844 14.35C84.451 16.4167 82.951 18.9333 81.4844 21.9C83.8844 22.3667 85.9177 22.95 87.5844 23.65L90.4844 10.05ZM115.183 44.3C113.149 44.3 111.649 43.7667 110.683 42.7C109.749 41.6 109.283 40.25 109.283 38.65C109.283 37.95 109.366 37.1667 109.533 36.3C109.699 35.4 109.866 34.5333 110.033 33.7C110.233 32.8667 110.366 32.3333 110.433 32.1C110.699 30.9333 110.949 29.7833 111.183 28.65C111.416 27.5167 111.533 26.6 111.533 25.9C111.533 24.2 110.933 23.35 109.733 23.35C108.866 23.35 108.099 23.7833 107.433 24.65C106.766 25.4833 106.233 26.5833 105.833 27.95L102.433 44H95.2328L100.533 19H107.733L107.183 21.6C108.849 19.7333 110.799 18.8 113.033 18.8C114.733 18.8 116.083 19.2667 117.083 20.2C118.083 21.1333 118.583 22.55 118.583 24.45C118.583 25.4167 118.466 26.5 118.233 27.7C117.999 28.8667 117.666 30.3 117.233 32C116.966 33.0333 116.716 34.05 116.483 35.05C116.283 36.0167 116.183 36.7833 116.183 37.35C116.183 38.0167 116.333 38.5333 116.633 38.9C116.933 39.2667 117.449 39.45 118.183 39.45C119.183 39.45 119.983 39.1 120.583 38.4C121.183 37.6667 121.783 36.55 122.383 35.05H124.483C123.249 38.7167 121.816 41.1833 120.183 42.45C118.583 43.6833 116.916 44.3 115.183 44.3ZM130.727 16.3C129.627 16.3 128.694 15.9167 127.927 15.15C127.16 14.3833 126.777 13.45 126.777 12.35C126.777 11.25 127.16 10.3167 127.927 9.55C128.694 8.75 129.627 8.35 130.727 8.35C131.827 8.35 132.76 8.75 133.527 9.55C134.327 10.3167 134.727 11.25 134.727 12.35C134.727 13.45 134.327 14.3833 133.527 15.15C132.76 15.9167 131.827 16.3 130.727 16.3ZM127.327 44.3C125.727 44.3 124.427 43.8 123.427 42.8C122.46 41.8 121.977 40.3 121.977 38.3C121.977 37.4667 122.11 36.3833 122.377 35.05L125.777 19H132.977L129.377 36C129.244 36.5 129.177 37.0333 129.177 37.6C129.177 38.2667 129.327 38.75 129.627 39.05C129.96 39.3167 130.494 39.45 131.227 39.45C132.194 39.45 133.094 39.05 133.927 38.25C134.76 37.4167 135.36 36.35 135.727 35.05H137.827C136.594 38.65 135.01 41.1 133.077 42.4C131.144 43.6667 129.227 44.3 127.327 44.3ZM166.107 44.3C164.074 44.3 162.574 43.7667 161.607 42.7C160.674 41.6 160.207 40.25 160.207 38.65C160.207 37.95 160.29 37.1667 160.457 36.3C160.624 35.4 160.79 34.5333 160.957 33.7C161.157 32.8667 161.29 32.3333 161.357 32.1C161.624 30.9333 161.874 29.7833 162.107 28.65C162.34 27.5167 162.457 26.6 162.457 25.9C162.457 24.2 161.857 23.35 160.657 23.35C159.79 23.35 159.024 23.7833 158.357 24.65C157.69 25.4833 157.157 26.5833 156.757 27.95L153.357 44H146.157L149.807 26.75C149.907 26.35 149.957 25.9333 149.957 25.5C149.957 24.0333 149.457 23.3 148.457 23.3C147.524 23.3 146.707 23.7333 146.007 24.6C145.34 25.4333 144.807 26.55 144.407 27.95L141.007 44H133.807L139.107 19H146.307L145.757 21.6C147.457 19.7 149.49 18.75 151.857 18.75C154.79 18.75 156.507 20.1833 157.007 23.05C158.84 20.2167 161.157 18.8 163.957 18.8C165.657 18.8 167.007 19.2667 168.007 20.2C169.007 21.1333 169.507 22.55 169.507 24.45C169.507 25.4167 169.39 26.5 169.157 27.7C168.924 28.8667 168.59 30.3 168.157 32C167.89 33.0333 167.64 34.05 167.407 35.05C167.207 36.0167 167.107 36.7833 167.107 37.35C167.107 38.0167 167.257 38.5333 167.557 38.9C167.857 39.2667 168.374 39.45 169.107 39.45C170.107 39.45 170.907 39.1 171.507 38.4C172.107 37.6667 172.707 36.55 173.307 35.05H175.407C174.174 38.7167 172.74 41.1833 171.107 42.45C169.507 43.6833 167.84 44.3 166.107 44.3ZM180.455 44.3C177.988 44.3 176.071 43.6667 174.705 42.4C173.338 41.1 172.655 39.0833 172.655 36.35C172.655 34.05 173.105 31.5167 174.005 28.75C174.905 25.9833 176.371 23.6 178.405 21.6C180.438 19.5667 183.021 18.55 186.155 18.55C189.821 18.55 191.655 20.15 191.655 23.35C191.655 25.2167 191.121 26.9333 190.055 28.5C188.988 30.0667 187.571 31.3333 185.805 32.3C184.038 33.2333 182.155 33.7667 180.155 33.9C180.088 34.9 180.055 35.5667 180.055 35.9C180.055 37.5333 180.338 38.65 180.905 39.25C181.471 39.8167 182.388 40.1 183.655 40.1C185.455 40.1 186.988 39.6833 188.255 38.85C189.555 38.0167 190.971 36.75 192.505 35.05H194.205C190.505 41.2167 185.921 44.3 180.455 44.3ZM180.555 31.5C181.788 31.4333 182.955 31 184.055 30.2C185.188 29.4 186.088 28.3833 186.755 27.15C187.455 25.9167 187.805 24.6167 187.805 23.25C187.805 21.8833 187.388 21.2 186.555 21.2C185.355 21.2 184.171 22.25 183.005 24.35C181.871 26.45 181.055 28.8333 180.555 31.5ZM198.194 44.3C196.594 44.3 195.244 44 194.144 43.4C193.044 42.7667 192.227 41.9667 191.694 41C191.161 40 190.894 38.9667 190.894 37.9C190.894 36.8 191.161 35.85 191.694 35.05C192.194 34.2167 192.811 33.6167 193.544 33.25C194.844 30.9167 195.977 28.5667 196.944 26.2C197.911 23.8 198.827 21.2167 199.694 18.45L207.094 17.45C207.261 21.7167 207.544 26.3333 207.944 31.3C208.111 33.3 208.194 34.75 208.194 35.65C208.194 37.6833 207.677 39.35 206.644 40.65C205.611 41.95 204.327 42.8833 202.794 43.45C201.294 44.0167 199.761 44.3 198.194 44.3ZM196.594 40.35C197.827 40.35 198.861 39.9833 199.694 39.25C200.527 38.5167 200.944 37.3333 200.944 35.7C200.944 34.7 200.844 33.3 200.644 31.5C200.311 27.7 200.094 25.15 199.994 23.85C199.194 26.4833 197.844 29.6333 195.944 33.3C196.711 33.7 197.094 34.2833 197.094 35.05C197.094 35.6833 196.877 36.25 196.444 36.75C196.044 37.25 195.527 37.5 194.894 37.5C194.194 37.5 193.744 37.2833 193.544 36.85C193.544 38.05 193.777 38.9333 194.244 39.5C194.744 40.0667 195.527 40.35 196.594 40.35ZM219.914 10.6C217.814 10.6667 216.198 11.4667 215.064 13C213.964 14.5333 213.414 17.1833 213.414 20.95C213.414 22.1833 213.531 23.05 213.764 23.55C213.998 24.0167 214.114 24.2833 214.114 24.35C212.314 24.35 210.964 23.9833 210.064 23.25C209.198 22.4833 208.764 21.2333 208.764 19.5C208.764 17.1333 209.348 14.9833 210.514 13.05C211.681 11.0833 213.531 9.5 216.064 8.3C218.631 7.1 221.881 6.5 225.814 6.5C226.614 6.5 227.681 6.58333 229.014 6.75C231.414 6.98333 233.114 7.1 234.114 7.1C235.881 7.1 237.381 6.9 238.614 6.5C238.514 6.8 238.331 7.46666 238.064 8.5C237.798 9.5 237.314 10.3667 236.614 11.1C235.948 11.8 235.031 12.2667 233.864 12.5C231.898 12.5 229.564 12.1833 226.864 11.55L224.764 21.5H232.064L231.264 25.2H223.964L219.914 44H212.714L219.914 10.6ZM236.214 44.3C234.614 44.3 233.314 43.8 232.314 42.8C231.347 41.8 230.864 40.3 230.864 38.3C230.864 37.4667 230.997 36.3833 231.264 35.05L236.614 10L244.014 9L238.264 36C238.13 36.5 238.064 37.0333 238.064 37.6C238.064 38.2667 238.214 38.75 238.514 39.05C238.847 39.3167 239.38 39.45 240.114 39.45C241.08 39.45 241.98 39.05 242.814 38.25C243.647 37.4167 244.247 36.35 244.614 35.05H246.714C245.48 38.65 243.897 41.1 241.964 42.4C240.03 43.6667 238.114 44.3 236.214 44.3ZM252.944 16.3C251.844 16.3 250.91 15.9167 250.144 15.15C249.377 14.3833 248.994 13.45 248.994 12.35C248.994 11.25 249.377 10.3167 250.144 9.55C250.91 8.75 251.844 8.35 252.944 8.35C254.044 8.35 254.977 8.75 255.744 9.55C256.544 10.3167 256.944 11.25 256.944 12.35C256.944 13.45 256.544 14.3833 255.744 15.15C254.977 15.9167 254.044 16.3 252.944 16.3ZM249.494 44.3C247.894 44.3 246.61 43.8167 245.644 42.85C244.677 41.85 244.194 40.35 244.194 38.35C244.194 37.5833 244.327 36.4833 244.594 35.05L247.994 19H255.194L251.594 36C251.46 36.5 251.394 37.0333 251.394 37.6C251.394 38.8 252.127 39.4 253.594 39.4C254.827 39.4 256.194 38.9667 257.694 38.1C259.227 37.2 260.51 36.0667 261.544 34.7L258.694 19H265.744L267.694 29.8C269.194 28.2 270.36 26.7 271.194 25.3C272.027 23.9 272.444 22.75 272.444 21.85C272.444 21.55 272.427 21.35 272.394 21.25C271.927 21.3167 271.644 21.35 271.544 21.35C270.71 21.35 270.11 21.1 269.744 20.6C269.377 20.0667 269.194 19.3833 269.194 18.55C269.194 17.8167 269.46 17.25 269.994 16.85C270.527 16.4167 271.194 16.2 271.994 16.2C273.06 16.2 273.894 16.6167 274.494 17.45C275.094 18.2833 275.394 19.35 275.394 20.65C275.394 22.25 274.827 23.9833 273.694 25.85C272.594 27.6833 270.777 29.9167 268.244 32.55L268.694 35.05C268.994 36.7167 269.327 37.8667 269.694 38.5C270.094 39.1333 270.81 39.45 271.844 39.45C272.444 39.45 272.977 39.35 273.444 39.15C273.31 40.8167 272.71 42.1 271.644 43C270.61 43.8667 269.377 44.3 267.944 44.3C266.377 44.3 265.16 43.7833 264.294 42.75C263.46 41.6833 262.744 39.9167 262.144 37.45C260.377 39.4167 258.36 41.05 256.094 42.35C253.86 43.65 251.66 44.3 249.494 44.3Z" fill="#653FFF"/>
<path d="M34.5 55.2L35.0087 54.3391L35.0026 54.3355L34.5 55.2ZM29 51.3L28.3753 52.0809L28.3796 52.0843L29 51.3ZM24.7 48.05L25.2704 47.2286L25.2655 47.2253L24.7 48.05ZM20.85 46L20.467 46.9238L20.4748 46.9269L20.85 46ZM15.5 45.2L14.5223 44.9898L14.2262 46.367L15.624 46.1923L15.5 45.2ZM22.95 10.55L23.9277 10.7602L24.3237 8.91828L22.5762 9.62248L22.95 10.55ZM17.75 14.7L16.9157 14.1487L16.9133 14.1523L17.75 14.7ZM16.3 24.05L15.3938 24.4729L15.3995 24.4851L15.4056 24.4972L16.3 24.05ZM16.65 24.85V25.85H17.65V24.85H16.65ZM12.6 23.75L11.9374 24.499L11.9526 24.5124L11.9683 24.5252L12.6 23.75ZM13.9 13.8L13.1451 13.1441L13.1443 13.1451L13.9 13.8ZM20.65 8.9L21.0613 9.81155L21.0705 9.80731L20.65 8.9ZM30.85 7.1L31.8278 7.30971L32.0678 6.19072L30.9267 6.10294L30.85 7.1ZM23.15 43L22.1722 42.7903L21.9695 43.7356L22.9075 43.9701L23.15 43ZM26 44L26.4229 43.0938L26.416 43.0906L26.4091 43.0875L26 44ZM29.6 45.85L29.1197 46.7271L29.1259 46.7305L29.6 45.85ZM35.15 48.5L35.5318 47.5757L35.5231 47.5722L35.5144 47.5688L35.15 48.5ZM44.15 48.65L45.1441 48.7589L45.3274 47.0861L43.7704 47.7248L44.15 48.65ZM42.35 54.4L41.518 53.8453L41.5133 53.8522L41.5088 53.8592L42.35 54.4ZM38.95 55.5C37.6522 55.5 36.3426 55.1273 35.0087 54.3391L33.9913 56.0609C35.5907 57.006 37.2478 57.5 38.95 57.5V55.5ZM35.0026 54.3355C33.6293 53.5371 31.8388 52.2706 29.6204 50.5157L28.3796 52.0843C30.6279 53.8628 32.504 55.1963 33.9974 56.0645L35.0026 54.3355ZM29.6247 50.5191C27.9476 49.1775 26.4953 48.0792 25.2704 47.2286L24.1296 48.8714C25.3047 49.6874 26.719 50.7559 28.3753 52.0809L29.6247 50.5191ZM25.2655 47.2253C24.0354 46.3818 22.6877 45.665 21.2252 45.0731L20.4748 46.9269C21.8124 47.4683 23.0312 48.1182 24.1345 48.8747L25.2655 47.2253ZM21.233 45.0763C19.7489 44.4609 18.219 44.15 16.65 44.15V46.15C17.9476 46.15 19.2177 46.4058 20.467 46.9237L21.233 45.0763ZM16.65 44.15C16.1373 44.15 15.7049 44.1666 15.376 44.2077L15.624 46.1923C15.8285 46.1667 16.1627 46.15 16.65 46.15V44.15ZM16.4777 45.4102L23.9277 10.7602L21.9723 10.3398L14.5223 44.9898L16.4777 45.4102ZM22.5762 9.62248C20.1698 10.5922 18.2694 12.0998 16.9157 14.1487L18.5843 15.2513C19.6972 13.5669 21.2635 12.3078 23.3238 11.4775L22.5762 9.62248ZM16.9133 14.1523C15.5856 16.1808 14.95 18.6314 14.95 21.45H16.95C16.95 18.9353 17.5144 16.8859 18.5867 15.2477L16.9133 14.1523ZM14.95 21.45C14.95 22.6922 15.0592 23.7559 15.3938 24.4729L17.2062 23.6271C17.0741 23.3441 16.95 22.6744 16.95 21.45H14.95ZM15.4056 24.4972C15.5196 24.7252 15.5982 24.8908 15.6463 25.0008C15.671 25.0571 15.6816 25.0853 15.6843 25.0928C15.6857 25.0968 15.6807 25.0834 15.6744 25.0582C15.6711 25.045 15.6658 25.0222 15.6611 24.9923C15.6566 24.9646 15.65 24.9144 15.65 24.85H17.65C17.65 24.6407 17.5818 24.4602 17.572 24.4321C17.5455 24.3564 17.5124 24.2763 17.4787 24.1992C17.4101 24.0426 17.3138 23.8415 17.1944 23.6028L15.4056 24.4972ZM16.65 23.85C14.9601 23.85 13.8783 23.5016 13.2317 22.9748L11.9683 24.5252C13.1217 25.465 14.7399 25.85 16.65 25.85V23.85ZM13.2626 23.001C12.6987 22.5022 12.3 21.5907 12.3 20H10.3C10.3 21.876 10.768 23.4645 11.9374 24.499L13.2626 23.001ZM12.3 20C12.3 18.1612 13.0406 16.3185 14.6557 14.4549L13.1443 13.1451C11.2927 15.2815 10.3 17.5722 10.3 20H12.3ZM14.6549 14.4559C16.3166 12.5433 18.4446 10.9922 21.0613 9.8115L20.2387 7.98849C17.3887 9.27446 15.0168 10.99 13.1451 13.1441L14.6549 14.4559ZM21.0705 9.80731C23.6856 8.5954 26.2762 8 28.85 8V6C25.9572 6 23.081 6.67126 20.2295 7.99269L21.0705 9.80731ZM28.85 8C29.278 8 29.9144 8.03099 30.7733 8.09705L30.9267 6.10294C30.0522 6.03568 29.3554 6 28.85 6V8ZM29.8722 6.89028L22.1722 42.7903L24.1278 43.2097L31.8278 7.30971L29.8722 6.89028ZM22.9075 43.9701C23.7783 44.1879 24.6727 44.5009 25.5909 44.9125L26.4091 43.0875C25.394 42.6325 24.3884 42.2788 23.3925 42.0299L22.9075 43.9701ZM25.5771 44.9062C26.5512 45.3608 27.731 45.9666 29.1197 46.7271L30.0803 44.9729C28.669 44.2 27.4488 43.5726 26.4229 43.0938L25.5771 44.9062ZM29.1259 46.7305C31.3126 47.9079 33.2013 48.8113 34.7856 49.4312L35.5144 47.5688C34.0321 46.9887 32.2208 46.1254 30.0741 44.9695L29.1259 46.7305ZM34.7682 49.4243C36.4232 50.1078 38.153 50.45 39.95 50.45V48.45C38.4137 48.45 36.9435 48.1588 35.5318 47.5757L34.7682 49.4243ZM39.95 50.45C41.5713 50.45 43.1012 50.1612 44.5296 49.5752L43.7704 47.7248C42.5988 48.2055 41.3287 48.45 39.95 48.45V50.45ZM43.156 48.5411C42.8994 50.8823 42.3311 52.6256 41.518 53.8453L43.1821 54.9547C44.2356 53.3744 44.8673 51.2843 45.1441 48.7589L43.156 48.5411ZM41.5088 53.8592C40.7467 55.0448 39.8991 55.5 38.95 55.5V57.5C40.7343 57.5 42.1533 56.5552 43.1912 54.9408L41.5088 53.8592ZM41.5453 10.6L42.5229 10.8107L42.7925 9.5599L41.5136 9.6005L41.5453 10.6ZM36.6953 13L35.8911 12.4056L35.8869 12.4113L35.8828 12.4171L36.6953 13ZM35.3953 23.55L34.4891 23.9729L34.4948 23.9851L34.5009 23.9972L35.3953 23.55ZM35.7453 24.35V25.35H36.7453V24.35H35.7453ZM31.6953 23.25L31.0327 23.999L31.0479 24.0124L31.0636 24.0252L31.6953 23.25ZM32.1453 13.05L33.0015 13.5667L33.0054 13.5602L32.1453 13.05ZM37.6953 8.3L37.2718 7.3941L37.2672 7.39626L37.6953 8.3ZM50.6453 6.75L50.5213 7.74227L50.5349 7.74398L50.5485 7.7453L50.6453 6.75ZM60.2453 6.5L61.194 6.81622L61.8201 4.93799L59.9368 5.54877L60.2453 6.5ZM59.6953 8.5L60.6616 8.75767L60.6636 8.74988L59.6953 8.5ZM58.2453 11.1L57.522 10.4095L57.5212 10.4103L58.2453 11.1ZM55.4953 12.5V13.5H55.5943L55.6914 13.4806L55.4953 12.5ZM48.4953 11.55L48.7237 10.5764L47.7281 10.3429L47.5169 11.3435L48.4953 11.55ZM46.3953 21.5L45.4169 21.2935L45.1622 22.5H46.3953V21.5ZM53.6953 21.5L54.6727 21.7113L54.9346 20.5H53.6953V21.5ZM52.8953 25.2V26.2H53.7022L53.8727 25.4113L52.8953 25.2ZM45.5953 25.2V24.2H44.7878L44.6177 24.9894L45.5953 25.2ZM41.5453 44V45H42.3528L42.5229 44.2106L41.5453 44ZM34.3453 44L33.3678 43.7893L33.1068 45H34.3453V44ZM41.5136 9.6005C39.1433 9.67575 37.2266 10.5988 35.8911 12.4056L37.4995 13.5944C38.4307 12.3345 39.7473 11.6576 41.577 11.5995L41.5136 9.6005ZM35.8828 12.4171C34.5885 14.2213 34.0453 17.1478 34.0453 20.95H36.0453C36.0453 17.2189 36.6022 14.8454 37.5079 13.5829L35.8828 12.4171ZM34.0453 20.95C34.0453 22.1922 34.1545 23.2559 34.4891 23.9729L36.3015 23.1271C36.1694 22.8441 36.0453 22.1744 36.0453 20.95H34.0453ZM34.5009 23.9972C34.6149 24.2252 34.6935 24.3908 34.7417 24.5008C34.7663 24.5571 34.7769 24.5853 34.7796 24.5928C34.781 24.5968 34.776 24.5834 34.7697 24.5582C34.7664 24.545 34.7611 24.5222 34.7564 24.4923C34.752 24.4646 34.7453 24.4144 34.7453 24.35H36.7453C36.7453 24.1407 36.6771 23.9602 36.6673 23.9321C36.6408 23.8564 36.6077 23.7763 36.574 23.6992C36.5055 23.5426 36.4091 23.3415 36.2897 23.1028L34.5009 23.9972ZM35.7453 23.35C34.0554 23.35 32.9736 23.0016 32.327 22.4748L31.0636 24.0252C32.217 24.965 33.8352 25.35 35.7453 25.35V23.35ZM32.3579 22.501C31.794 22.0022 31.3953 21.0907 31.3953 19.5H29.3953C29.3953 21.376 29.8633 22.9645 31.0327 23.999L32.3579 22.501ZM31.3953 19.5C31.3953 17.3063 31.9335 15.3364 33.0015 13.5667L31.2891 12.5333C30.0238 14.6302 29.3953 16.9604 29.3953 19.5H31.3953ZM33.0054 13.5602C34.0495 11.8001 35.729 10.3379 38.1234 9.20374L37.2672 7.39626C34.595 8.66207 32.5744 10.3666 31.2853 12.5398L33.0054 13.5602ZM38.1188 9.20588C40.5119 8.08706 43.605 7.5 47.4453 7.5V5.5C43.4189 5.5 40.0121 6.11294 37.2718 7.39412L38.1188 9.20588ZM47.4453 7.5C48.1854 7.5 49.2055 7.5778 50.5213 7.74227L50.7693 5.75772C49.4185 5.58886 48.3052 5.5 47.4453 5.5V7.5ZM50.5485 7.7453C52.9485 7.97864 54.6918 8.1 55.7453 8.1V6.1C54.7989 6.1 53.1421 5.98802 50.7421 5.75469L50.5485 7.7453ZM55.7453 8.1C57.5815 8.1 59.1921 7.89286 60.5538 7.45122L59.9368 5.54877C58.8319 5.90713 57.4425 6.1 55.7453 6.1V8.1ZM59.2966 6.18377C59.1836 6.52298 58.9915 7.2253 58.727 8.25012L60.6636 8.74988C60.9325 7.70803 61.1071 7.07702 61.194 6.81622L59.2966 6.18377ZM58.7291 8.24234C58.5048 9.08348 58.1034 9.80038 57.522 10.4095L58.9687 11.7905C59.7872 10.933 60.3525 9.91651 60.6615 8.75766L58.7291 8.24234ZM57.5212 10.4103C57.0263 10.93 56.3113 11.317 55.2992 11.5194L55.6914 13.4806C57.0127 13.2163 58.131 12.67 58.9695 11.7897L57.5212 10.4103ZM55.4953 11.5C53.6297 11.5 51.3767 11.1987 48.7237 10.5764L48.2669 12.5236C51.0139 13.1679 53.4276 13.5 55.4953 13.5V11.5ZM47.5169 11.3435L45.4169 21.2935L47.3738 21.7065L49.4738 11.7565L47.5169 11.3435ZM46.3953 22.5H53.6953V20.5H46.3953V22.5ZM52.7179 21.2887L51.9179 24.9887L53.8727 25.4113L54.6727 21.7113L52.7179 21.2887ZM52.8953 24.2H45.5953V26.2H52.8953V24.2ZM44.6177 24.9894L40.5677 43.7894L42.5229 44.2106L46.5729 25.4106L44.6177 24.9894ZM41.5453 43H34.3453V45H41.5453V43ZM35.3229 44.2107L42.5229 10.8107L40.5678 10.3893L33.3678 43.7893L35.3229 44.2107ZM74.6344 49.7V50.7H76.679L75.4237 49.0861L74.6344 49.7ZM71.3844 49.4L71.5939 48.4222L71.3844 49.4ZM68.9344 47.95L68.1798 48.6062L68.1877 48.6153L68.1959 48.6243L68.9344 47.95ZM69.9344 35.4L68.9943 35.0589L68.9917 35.0663L69.9344 35.4ZM75.2844 24.05L76.1498 24.551L77.0823 22.9403L75.2245 23.0518L75.2844 24.05ZM71.3344 24.8L71.7167 25.724L71.3344 24.8ZM69.4344 26.65L68.4935 26.3113L68.0116 27.65H69.4344V26.65ZM69.8344 27.15L68.9059 27.5214L68.9213 27.56L68.9399 27.5972L69.8344 27.15ZM69.2844 29.65L69.8144 30.498L69.8329 30.4864L69.8509 30.474L69.2844 29.65ZM65.0344 29.4L65.696 28.6502L65.0344 29.4ZM65.4844 24.15L64.7645 23.4559L64.758 23.4626L64.7516 23.4695L65.4844 24.15ZM69.1844 21.95L69.5066 22.8966L69.5156 22.8936L69.5245 22.8904L69.1844 21.95ZM76.9844 21.25L76.8881 22.2453L77.5014 22.3047L77.8302 21.7835L76.9844 21.25ZM85.6344 10.65L86.3038 11.3929L86.3042 11.3925L85.6344 10.65ZM98.3344 7.2L99.3124 7.40862L99.4805 6.62036L98.746 6.28863L98.3344 7.2ZM90.4844 44V45H91.2936L91.4624 44.2086L90.4844 44ZM83.2844 44L82.3061 43.7925L82.05 45H83.2844V44ZM87.1344 25.85L88.1126 26.0575L88.2786 25.2752L87.5519 24.9413L87.1344 25.85ZM83.7344 24.6L83.4845 25.5683L83.7344 24.6ZM80.4344 24.05L80.5198 23.0537L79.8217 22.9938L79.5271 23.6295L80.4344 24.05ZM75.7344 36.65L74.7731 36.3743L74.7717 36.3793L75.7344 36.65ZM90.4844 10.05L91.4624 10.2585L91.9114 8.15262L90.0127 9.16821L90.4844 10.05ZM85.9844 14.35L85.1828 13.752L85.1813 13.7542L85.9844 14.35ZM81.4844 21.9L80.5879 21.4568L80.0072 22.6315L81.2935 22.8816L81.4844 21.9ZM87.5844 23.65L87.1971 24.572L88.3105 25.0396L88.5624 23.8585L87.5844 23.65ZM74.6344 48.7C73.4522 48.7 72.4418 48.6039 71.5939 48.4222L71.1748 50.3778C72.1936 50.5961 73.3499 50.7 74.6344 50.7V48.7ZM71.5939 48.4222C70.8822 48.2697 70.2454 47.9028 69.6729 47.2757L68.1959 48.6243C69.0233 49.5305 70.0199 50.1303 71.1748 50.3778L71.5939 48.4222ZM69.689 47.2938C69.2496 46.7886 68.9344 45.8905 68.9344 44.4H66.9344C66.9344 46.1095 67.2858 47.5781 68.1798 48.6062L69.689 47.2938ZM68.9344 44.4C68.9344 42.3367 69.5566 39.4639 70.8771 35.7337L68.9917 35.0663C67.6454 38.8695 66.9344 41.9966 66.9344 44.4H68.9344ZM70.8744 35.7411C72.2192 32.0348 73.9766 28.3048 76.1498 24.551L74.4189 23.549C72.1922 27.3952 70.3829 31.2319 68.9943 35.0589L70.8744 35.7411ZM75.2245 23.0518C73.5049 23.155 72.0639 23.4159 70.952 23.876L71.7167 25.724C72.5382 25.3841 73.7306 25.145 75.3443 25.0482L75.2245 23.0518ZM70.952 23.876C69.7766 24.3624 68.9063 25.1646 68.4935 26.3113L70.3753 26.9887C70.5625 26.4687 70.9589 26.0376 71.7167 25.724L70.952 23.876ZM69.4344 27.65C69.2489 27.65 69.1011 27.5897 69.0044 27.5292C68.9147 27.4732 68.8671 27.4167 68.8535 27.3997C68.8311 27.3717 68.8545 27.3928 68.9059 27.5214L70.7629 26.7786C70.6809 26.5738 70.571 26.345 70.4152 26.1503C70.2725 25.9719 69.9493 25.65 69.4344 25.65V27.65ZM68.9399 27.5972C69.0384 27.7941 69.0844 27.9912 69.0844 28.2H71.0844C71.0844 27.6755 70.9637 27.1726 70.7288 26.7028L68.9399 27.5972ZM69.0844 28.2C69.0844 28.4413 69.005 28.6285 68.7178 28.826L69.8509 30.474C70.6304 29.9381 71.0844 29.1587 71.0844 28.2H69.0844ZM68.7544 28.802C68.4179 29.0123 67.9474 29.15 67.2844 29.15V31.15C68.2214 31.15 69.0842 30.9544 69.8144 30.498L68.7544 28.802ZM67.2844 29.15C66.5351 29.15 66.0397 28.9535 65.696 28.6502L64.3728 30.1498C65.1624 30.8465 66.167 31.15 67.2844 31.15V29.15ZM65.696 28.6502C65.3937 28.3835 65.1844 27.9694 65.1844 27.25H63.1844C63.1844 28.3973 63.5417 29.4165 64.3728 30.1498L65.696 28.6502ZM65.1844 27.25C65.1844 26.4009 65.4993 25.6035 66.2172 24.8305L64.7516 23.4695C63.7361 24.5631 63.1844 25.8324 63.1844 27.25H65.1844ZM66.2042 24.8441C66.9674 24.0527 68.0502 23.3925 69.5066 22.8966L68.8621 21.0033C67.1852 21.5742 65.8014 22.3806 64.7645 23.4559L66.2042 24.8441ZM69.5245 22.8904C70.968 22.3683 72.5843 22.1 74.3844 22.1V20.1C72.3845 20.1 70.5341 20.3984 68.8442 21.0096L69.5245 22.8904ZM74.3844 22.1C75.0409 22.1 75.873 22.1471 76.8881 22.2453L77.0807 20.2547C76.029 20.1529 75.1279 20.1 74.3844 20.1V22.1ZM77.8302 21.7835C80.5264 17.5089 83.3533 14.0516 86.3038 11.3929L84.965 9.90711C81.8488 12.7151 78.909 16.3244 76.1386 20.7165L77.8302 21.7835ZM86.3042 11.3925C89.2755 8.71191 91.9627 7.5 94.3844 7.5V5.5C91.2727 5.5 88.1266 7.05475 84.9645 9.90751L86.3042 11.3925ZM94.3844 7.5C95.8968 7.5 97.0605 7.72196 97.9228 8.11137L98.746 6.28863C97.5415 5.7447 96.072 5.5 94.3844 5.5V7.5ZM97.3564 6.99137L89.5064 43.7914L91.4624 44.2086L99.3124 7.40862L97.3564 6.99137ZM90.4844 43H83.2844V45H90.4844V43ZM84.2626 44.2075L88.1126 26.0575L86.1561 25.6425L82.3061 43.7925L84.2626 44.2075ZM87.5519 24.9413C86.2783 24.3562 85.0881 23.9166 83.9843 23.6317L83.4845 25.5683C84.4473 25.8167 85.5238 26.2105 86.7169 26.7587L87.5519 24.9413ZM83.9843 23.6317C82.8921 23.3499 81.7367 23.158 80.5198 23.0537L80.349 25.0463C81.4654 25.142 82.51 25.3168 83.4845 25.5683L83.9843 23.6317ZM79.5271 23.6295C77.6056 27.7759 76.0208 32.0242 74.7731 36.3743L76.6956 36.9257C77.9146 32.6758 79.4632 28.5241 81.3417 24.4705L79.5271 23.6295ZM74.7717 36.3793C73.5621 40.6801 72.9344 44.1989 72.9344 46.9H74.9344C74.9344 44.4677 75.5066 41.1533 76.697 36.9207L74.7717 36.3793ZM72.9344 46.9C72.9344 48.2536 73.1771 49.4552 73.845 50.3139L75.4237 49.0861C75.1583 48.7448 74.9344 48.0798 74.9344 46.9H72.9344ZM90.0127 9.16821C88.3945 10.0338 86.7897 11.5981 85.1829 13.752L86.7859 14.948C88.3124 12.9019 89.7076 11.5995 90.956 10.9318L90.0127 9.16821ZM85.1813 13.7542C83.6039 15.8801 82.074 18.4509 80.5879 21.4568L82.3808 22.3432C83.8281 19.4158 85.2982 16.9532 86.7875 14.9458L85.1813 13.7542ZM81.2935 22.8816C83.648 23.3394 85.6114 23.906 87.1971 24.572L87.9716 22.728C86.224 21.994 84.1207 21.3939 81.6752 20.9184L81.2935 22.8816ZM88.5624 23.8585L91.4624 10.2585L89.5064 9.84145L86.6064 23.4415L88.5624 23.8585ZM110.683 42.7L109.92 43.347L109.931 43.3594L109.942 43.3715L110.683 42.7ZM109.533 36.3L110.515 36.4888L110.516 36.4821L109.533 36.3ZM110.033 33.7L109.06 33.4666L109.056 33.4852L109.052 33.5039L110.033 33.7ZM110.433 32.1L111.394 32.3747L111.402 32.349L111.408 32.3228L110.433 32.1ZM107.433 24.65L108.214 25.2747L108.22 25.2673L108.225 25.2597L107.433 24.65ZM105.833 27.95L104.873 27.6691L104.862 27.7056L104.855 27.7428L105.833 27.95ZM102.433 44V45H103.243L103.411 44.2072L102.433 44ZM95.2328 44L94.2546 43.7926L93.9986 45H95.2328V44ZM100.533 19V18H99.7226L99.5546 18.7926L100.533 19ZM107.733 19L108.711 19.207L108.966 18H107.733V19ZM107.183 21.6L106.204 21.393L105.427 25.0679L107.929 22.266L107.183 21.6ZM118.233 27.7L119.213 27.8961L119.214 27.8909L118.233 27.7ZM117.233 32L118.201 32.2499L118.202 32.247L117.233 32ZM116.483 35.05L115.509 34.8228L115.506 34.835L115.504 34.8474L116.483 35.05ZM120.583 38.4L121.342 39.0508L121.35 39.0421L121.357 39.0332L120.583 38.4ZM122.383 35.05V34.05H121.706L121.454 34.6786L122.383 35.05ZM124.483 35.05L125.431 35.3688L125.874 34.05H124.483V35.05ZM120.183 42.45L120.793 43.242L120.796 43.2402L120.183 42.45ZM115.183 43.3C113.312 43.3 112.133 42.8113 111.424 42.0285L109.942 43.3715C111.166 44.7221 112.987 45.3 115.183 45.3V43.3ZM111.445 42.053C110.682 41.1538 110.283 40.0407 110.283 38.65H108.283C108.283 40.4593 108.817 42.0462 109.92 43.347L111.445 42.053ZM110.283 38.65C110.283 38.0272 110.357 37.3086 110.515 36.4888L108.551 36.1112C108.375 37.0248 108.283 37.8728 108.283 38.65H110.283ZM110.516 36.4821C110.682 35.5864 110.848 34.7244 111.013 33.8961L109.052 33.5039C108.885 34.3422 108.717 35.2136 108.55 36.1179L110.516 36.4821ZM111.005 33.9334C111.207 33.0941 111.335 32.5833 111.394 32.3747L109.471 31.8253C109.398 32.0834 109.259 32.6393 109.06 33.4666L111.005 33.9334ZM111.408 32.3228C111.676 31.1494 111.927 29.9923 112.162 28.8517L110.203 28.4483C109.972 29.5744 109.723 30.7173 109.458 31.8772L111.408 32.3228ZM112.162 28.8517C112.402 27.6889 112.533 26.6972 112.533 25.9H110.533C110.533 26.5028 110.431 27.3444 110.203 28.4483L112.162 28.8517ZM112.533 25.9C112.533 24.9628 112.373 24.0811 111.9 23.4108C111.382 22.6767 110.6 22.35 109.733 22.35V24.35C110.065 24.35 110.184 24.4483 110.266 24.5642C110.393 24.7439 110.533 25.1372 110.533 25.9H112.533ZM109.733 22.35C108.476 22.35 107.442 22.9984 106.64 24.0403L108.225 25.2597C108.757 24.5683 109.256 24.35 109.733 24.35V22.35ZM106.652 24.0253C105.882 24.9883 105.298 26.2168 104.873 27.6691L106.793 28.2309C107.167 26.9499 107.651 25.9783 108.214 25.2747L106.652 24.0253ZM104.855 27.7428L101.455 43.7928L103.411 44.2072L106.811 28.1572L104.855 27.7428ZM102.433 43H95.2328V45H102.433V43ZM96.2111 44.2074L101.511 19.2074L99.5546 18.7926L94.2546 43.7926L96.2111 44.2074ZM100.533 20H107.733V18H100.533V20ZM106.754 18.793L106.204 21.393L108.161 21.807L108.711 19.207L106.754 18.793ZM107.929 22.266C109.431 20.5833 111.12 19.8 113.033 19.8V17.8C110.479 17.8 108.268 18.8833 106.437 20.934L107.929 22.266ZM113.033 19.8C114.544 19.8 115.628 20.21 116.4 20.9311L117.765 19.4689C116.538 18.3234 114.922 17.8 113.033 17.8V19.8ZM116.4 20.9311C117.129 21.6109 117.583 22.7162 117.583 24.45H119.583C119.583 22.3838 119.037 20.6557 117.765 19.4689L116.4 20.9311ZM117.583 24.45C117.583 25.3384 117.475 26.3564 117.251 27.5091L119.214 27.8909C119.457 26.6436 119.583 25.4949 119.583 24.45H117.583ZM117.252 27.5039C117.023 28.6476 116.695 30.0628 116.264 31.753L118.202 32.247C118.638 30.5372 118.975 29.0858 119.213 27.8961L117.252 27.5039ZM116.265 31.7501C115.996 32.7907 115.744 33.8149 115.509 34.8228L117.457 35.2772C117.688 34.2851 117.936 33.276 118.201 32.2499L116.265 31.7501ZM115.504 34.8474C115.298 35.8395 115.183 36.6832 115.183 37.35H117.183C117.183 36.8835 117.267 36.1939 117.462 35.2526L115.504 34.8474ZM115.183 37.35C115.183 38.155 115.363 38.9274 115.859 39.5332L117.407 38.2668C117.302 38.1392 117.183 37.8784 117.183 37.35H115.183ZM115.859 39.5332C116.433 40.2354 117.315 40.45 118.183 40.45V38.45C117.584 38.45 117.432 38.2979 117.407 38.2668L115.859 39.5332ZM118.183 40.45C119.447 40.45 120.535 39.9928 121.342 39.0508L119.824 37.7492C119.431 38.2072 118.919 38.45 118.183 38.45V40.45ZM121.357 39.0332C122.051 38.1846 122.696 36.9593 123.311 35.4214L121.454 34.6786C120.87 36.1407 120.315 37.1487 119.809 37.7668L121.357 39.0332ZM122.383 36.05H124.483V34.05H122.383V36.05ZM123.535 34.7312C122.318 38.3499 120.962 40.58 119.57 41.6598L120.796 43.2402C122.67 41.7867 124.181 39.0834 125.431 35.3688L123.535 34.7312ZM119.572 41.658C118.117 42.7797 116.66 43.3 115.183 43.3V45.3C117.172 45.3 119.049 44.587 120.793 43.242L119.572 41.658ZM127.927 15.15L128.634 14.4429L127.927 15.15ZM127.927 9.55L128.634 10.2571L128.642 10.2496L128.649 10.2419L127.927 9.55ZM133.527 9.55L132.805 10.2419L132.82 10.2573L132.835 10.272L133.527 9.55ZM133.527 15.15L132.835 14.428L132.827 14.4354L132.82 14.4429L133.527 15.15ZM123.427 42.8L122.708 43.495L122.714 43.5011L122.72 43.5071L123.427 42.8ZM122.377 35.05L121.399 34.8427L121.396 34.8539L122.377 35.05ZM125.777 19V18H124.967L124.799 18.7928L125.777 19ZM132.977 19L133.955 19.2072L134.211 18H132.977V19ZM129.377 36L130.343 36.2577L130.35 36.2326L130.355 36.2072L129.377 36ZM129.627 39.05L128.92 39.7571L128.959 39.7963L129.002 39.8309L129.627 39.05ZM133.927 38.25L134.619 38.9714L134.627 38.9643L134.634 38.9571L133.927 38.25ZM135.727 35.05V34.05H134.97L134.765 34.7785L135.727 35.05ZM137.827 35.05L138.773 35.3741L139.227 34.05H137.827V35.05ZM133.077 42.4L133.625 43.2365L133.635 43.2298L133.077 42.4ZM130.727 15.3C129.888 15.3 129.21 15.019 128.634 14.4429L127.22 15.8571C128.177 16.8144 129.366 17.3 130.727 17.3V15.3ZM128.634 14.4429C128.058 13.8668 127.777 13.1891 127.777 12.35H125.777C125.777 13.7109 126.263 14.8999 127.22 15.8571L128.634 14.4429ZM127.777 12.35C127.777 11.5109 128.058 10.8332 128.634 10.2571L127.22 8.84289C126.263 9.80014 125.777 10.9891 125.777 12.35H127.777ZM128.649 10.2419C129.229 9.63708 129.902 9.35 130.727 9.35V7.35C129.352 7.35 128.159 7.86291 127.205 8.8581L128.649 10.2419ZM130.727 9.35C131.552 9.35 132.225 9.63708 132.805 10.2419L134.249 8.8581C133.295 7.86291 132.102 7.35 130.727 7.35V9.35ZM132.835 10.272C133.44 10.8516 133.727 11.5248 133.727 12.35H135.727C135.727 10.9752 135.214 9.78172 134.219 8.82801L132.835 10.272ZM133.727 12.35C133.727 13.1752 133.44 13.8484 132.835 14.428L134.219 15.872C135.214 14.9183 135.727 13.7248 135.727 12.35H133.727ZM132.82 14.4429C132.244 15.019 131.566 15.3 130.727 15.3V17.3C132.088 17.3 133.277 16.8144 134.234 15.8571L132.82 14.4429ZM127.327 43.3C125.954 43.3 124.921 42.8801 124.134 42.0929L122.72 43.5071C123.933 44.7199 125.5 45.3 127.327 45.3V43.3ZM124.146 42.105C123.425 41.3596 122.977 40.1542 122.977 38.3H120.977C120.977 40.4458 121.495 42.2404 122.708 43.495L124.146 42.105ZM122.977 38.3C122.977 37.5605 123.097 36.5498 123.358 35.2461L121.396 34.8539C121.124 36.2168 120.977 37.3728 120.977 38.3H122.977ZM123.355 35.2572L126.755 19.2072L124.799 18.7928L121.399 34.8428L123.355 35.2572ZM125.777 20H132.977V18H125.777V20ZM131.999 18.7928L128.399 35.7928L130.355 36.2072L133.955 19.2072L131.999 18.7928ZM128.411 35.7423C128.253 36.3339 128.177 36.9545 128.177 37.6H130.177C130.177 37.1121 130.234 36.6661 130.343 36.2577L128.411 35.7423ZM128.177 37.6C128.177 38.3849 128.349 39.1864 128.92 39.7571L130.334 38.3429C130.305 38.3136 130.177 38.1484 130.177 37.6H128.177ZM129.002 39.8309C129.601 40.3101 130.414 40.45 131.227 40.45V38.45C130.573 38.45 130.319 38.3232 130.252 38.2691L129.002 39.8309ZM131.227 40.45C132.501 40.45 133.639 39.913 134.619 38.9714L133.234 37.5286C132.549 38.187 131.886 38.45 131.227 38.45V40.45ZM134.634 38.9571C135.605 37.9861 136.283 36.7618 136.689 35.3215L134.765 34.7785C134.437 35.9382 133.915 36.8473 133.22 37.5429L134.634 38.9571ZM135.727 36.05H137.827V34.05H135.727V36.05ZM136.881 34.7259C135.677 38.2397 134.188 40.4476 132.519 41.5702L133.635 43.2298C135.832 41.7524 137.51 39.0603 138.773 35.3741L136.881 34.7259ZM132.529 41.5635C130.723 42.7468 128.994 43.3 127.327 43.3V45.3C129.46 45.3 131.564 44.5865 133.625 43.2365L132.529 41.5635ZM161.607 42.7L160.845 43.347L160.855 43.3594L160.866 43.3715L161.607 42.7ZM160.457 36.3L161.439 36.4889L161.44 36.4821L160.457 36.3ZM160.957 33.7L159.985 33.4666L159.98 33.4852L159.976 33.5039L160.957 33.7ZM161.357 32.1L162.319 32.3747L162.326 32.3489L162.332 32.3228L161.357 32.1ZM162.107 28.65L161.128 28.4483V28.4483L162.107 28.65ZM158.357 24.65L159.138 25.2747L159.144 25.2673L159.15 25.2597L158.357 24.65ZM156.757 27.95L155.797 27.6691L155.787 27.7056L155.779 27.7428L156.757 27.95ZM153.357 44V45H154.167L154.335 44.2072L153.357 44ZM146.157 44L145.179 43.793L144.923 45H146.157V44ZM149.807 26.75L148.837 26.5075L148.832 26.5252L148.829 26.543L149.807 26.75ZM146.007 24.6L145.229 23.9717L145.226 23.9753L146.007 24.6ZM144.407 27.95L143.446 27.6753L143.436 27.7087L143.429 27.7428L144.407 27.95ZM141.007 44V45H141.817L141.985 44.2072L141.007 44ZM133.807 44L132.829 43.7926L132.573 45H133.807V44ZM139.107 19V18H138.297L138.129 18.7926L139.107 19ZM146.307 19L147.285 19.207L147.541 18H146.307V19ZM145.757 21.6L144.779 21.393L144.003 25.0602L146.502 22.2668L145.757 21.6ZM157.007 23.05L156.022 23.2218L156.46 25.7356L157.847 23.5933L157.007 23.05ZM168.007 20.2L167.325 20.9311H167.325L168.007 20.2ZM169.157 27.7L170.138 27.8961L170.139 27.8909L169.157 27.7ZM168.157 32L169.125 32.2499L169.126 32.247L168.157 32ZM167.407 35.05L166.433 34.8228L166.43 34.835L166.428 34.8474L167.407 35.05ZM167.557 38.9L166.783 39.5332L167.557 38.9ZM171.507 38.4L172.266 39.0508L172.274 39.0421L172.281 39.0332L171.507 38.4ZM173.307 35.05V34.05H172.63L172.379 34.6786L173.307 35.05ZM175.407 35.05L176.355 35.3688L176.798 34.05H175.407V35.05ZM171.107 42.45L171.718 43.242L171.72 43.2402L171.107 42.45ZM166.107 43.3C164.236 43.3 163.057 42.8113 162.348 42.0285L160.866 43.3715C162.09 44.7221 163.911 45.3 166.107 45.3V43.3ZM162.37 42.053C161.607 41.1538 161.207 40.0407 161.207 38.65H159.207C159.207 40.4593 159.741 42.0462 160.845 43.347L162.37 42.053ZM161.207 38.65C161.207 38.0272 161.281 37.3086 161.439 36.4888L159.475 36.1112C159.299 37.0248 159.207 37.8728 159.207 38.65H161.207ZM161.44 36.4821C161.606 35.5864 161.772 34.7244 161.938 33.8961L159.976 33.5039C159.809 34.3422 159.641 35.2136 159.474 36.1179L161.44 36.4821ZM161.929 33.9334C162.131 33.0941 162.259 32.5833 162.319 32.3747L160.396 31.8253C160.322 32.0834 160.183 32.6392 159.985 33.4666L161.929 33.9334ZM162.332 32.3228C162.6 31.1494 162.852 29.9923 163.086 28.8517L161.128 28.4483C160.896 29.5744 160.647 30.7173 160.382 31.8772L162.332 32.3228ZM163.086 28.8517C163.326 27.6889 163.457 26.6972 163.457 25.9H161.457C161.457 26.5028 161.355 27.3444 161.128 28.4483L163.086 28.8517ZM163.457 25.9C163.457 24.9628 163.297 24.0811 162.824 23.4108C162.306 22.6767 161.525 22.35 160.657 22.35V24.35C160.989 24.35 161.108 24.4483 161.19 24.5642C161.317 24.7439 161.457 25.1372 161.457 25.9H163.457ZM160.657 22.35C159.4 22.35 158.366 22.9984 157.564 24.0403L159.15 25.2597C159.682 24.5683 160.18 24.35 160.657 24.35V22.35ZM157.576 24.0253C156.806 24.9883 156.222 26.2168 155.797 27.6691L157.717 28.2309C158.092 26.9499 158.575 25.9783 159.138 25.2747L157.576 24.0253ZM155.779 27.7428L152.379 43.7928L154.335 44.2072L157.735 28.1572L155.779 27.7428ZM153.357 43H146.157V45H153.357V43ZM147.135 44.207L150.785 26.957L148.829 26.543L145.179 43.793L147.135 44.207ZM150.777 26.9925C150.898 26.5093 150.957 26.0109 150.957 25.5H148.957C148.957 25.8557 148.916 26.1907 148.837 26.5075L150.777 26.9925ZM150.957 25.5C150.957 24.6842 150.824 23.8959 150.408 23.2867C149.946 22.6088 149.239 22.3 148.457 22.3V24.3C148.585 24.3 148.648 24.323 148.674 24.3359C148.696 24.3465 148.722 24.364 148.756 24.4133C148.84 24.5374 148.957 24.8491 148.957 25.5H150.957ZM148.457 22.3C147.162 22.3 146.078 22.9205 145.229 23.9717L146.785 25.2283C147.336 24.5462 147.885 24.3 148.457 24.3V22.3ZM145.226 23.9753C144.452 24.9425 143.869 26.1914 143.446 27.6753L145.369 28.2247C145.745 26.9086 146.228 25.9242 146.788 25.2247L145.226 23.9753ZM143.429 27.7428L140.029 43.7928L141.985 44.2072L145.385 28.1572L143.429 27.7428ZM141.007 43H133.807V45H141.007V43ZM134.785 44.2074L140.085 19.2074L138.129 18.7926L132.829 43.7926L134.785 44.2074ZM139.107 20H146.307V18H139.107V20ZM145.329 18.793L144.779 21.393L146.735 21.807L147.285 19.207L145.329 18.793ZM146.502 22.2668C148.029 20.5604 149.799 19.75 151.857 19.75V17.75C149.182 17.75 146.885 18.8396 145.012 20.9332L146.502 22.2668ZM151.857 19.75C153.163 19.75 154.075 20.0675 154.704 20.5926C155.332 21.1169 155.8 21.9502 156.022 23.2218L157.992 22.8782C157.714 21.2832 157.074 19.9664 155.985 19.0574C154.898 18.1492 153.484 17.75 151.857 17.75V19.75ZM157.847 23.5933C159.539 20.9773 161.569 19.8 163.957 19.8V17.8C160.745 17.8 158.141 19.4561 156.167 22.5067L157.847 23.5933ZM163.957 19.8C165.468 19.8 166.552 20.21 167.325 20.9311L168.689 19.4689C167.462 18.3234 165.846 17.8 163.957 17.8V19.8ZM167.325 20.9311C168.053 21.6109 168.507 22.7162 168.507 24.45H170.507C170.507 22.3838 169.961 20.6557 168.689 19.4689L167.325 20.9311ZM168.507 24.45C168.507 25.3384 168.4 26.3564 168.175 27.5091L170.139 27.8909C170.381 26.6436 170.507 25.4949 170.507 24.45H168.507ZM168.176 27.5039C167.948 28.6476 167.619 30.0628 167.188 31.753L169.126 32.247C169.562 30.5372 169.9 29.0858 170.138 27.8961L168.176 27.5039ZM167.189 31.7501C166.92 32.7907 166.668 33.8149 166.433 34.8228L168.381 35.2772C168.612 34.2851 168.861 33.276 169.125 32.2499L167.189 31.7501ZM166.428 34.8474C166.223 35.8395 166.107 36.6832 166.107 37.35H168.107C168.107 36.8835 168.192 36.1939 168.386 35.2526L166.428 34.8474ZM166.107 37.35C166.107 38.155 166.287 38.9274 166.783 39.5332L168.331 38.2668C168.227 38.1392 168.107 37.8784 168.107 37.35H166.107ZM166.783 39.5332C167.358 40.2354 168.239 40.45 169.107 40.45V38.45C168.508 38.45 168.356 38.2979 168.331 38.2668L166.783 39.5332ZM169.107 40.45C170.371 40.45 171.459 39.9928 172.266 39.0508L170.748 37.7492C170.355 38.2072 169.843 38.45 169.107 38.45V40.45ZM172.281 39.0332C172.975 38.1846 173.62 36.9593 174.236 35.4214L172.379 34.6786C171.794 36.1407 171.239 37.1487 170.733 37.7668L172.281 39.0332ZM173.307 36.05H175.407V34.05H173.307V36.05ZM174.459 34.7312C173.242 38.3499 171.887 40.58 170.494 41.6598L171.72 43.2402C173.594 41.7867 175.105 39.0834 176.355 35.3688L174.459 34.7312ZM170.497 41.658C169.041 42.7797 167.584 43.3 166.107 43.3V45.3C168.097 45.3 169.973 44.587 171.718 43.242L170.497 41.658ZM174.705 42.4L174.015 43.1246L174.025 43.1334L174.705 42.4ZM174.005 28.75L174.956 29.0593L174.005 28.75ZM178.405 21.6L179.106 22.313L179.112 22.3071L178.405 21.6ZM190.055 28.5L190.881 29.0628L190.055 28.5ZM185.805 32.3L186.272 33.1842L186.278 33.1808L186.285 33.1773L185.805 32.3ZM180.155 33.9L180.088 32.9022L179.215 32.9604L179.157 33.8335L180.155 33.9ZM180.905 39.25L180.178 39.9366L180.187 39.947L180.198 39.9571L180.905 39.25ZM188.255 38.85L187.715 38.0081L187.705 38.0146L188.255 38.85ZM192.505 35.05V34.05H192.06L191.762 34.3802L192.505 35.05ZM194.205 35.05L195.062 35.5645L195.971 34.05H194.205V35.05ZM180.555 31.5L179.572 31.3157L179.337 32.5673L180.609 32.4985L180.555 31.5ZM184.055 30.2L183.478 29.3829L183.467 29.3913L184.055 30.2ZM186.755 27.15L185.885 26.6564L185.88 26.6654L185.875 26.6745L186.755 27.15ZM183.005 24.35L182.13 23.8643L182.125 23.8751L183.005 24.35ZM180.455 43.3C178.157 43.3 176.513 42.7125 175.384 41.6666L174.025 43.1334C175.63 44.6209 177.82 45.3 180.455 45.3V43.3ZM175.394 41.6754C174.301 40.6354 173.655 38.9336 173.655 36.35H171.655C171.655 39.233 172.375 41.5646 174.015 43.1246L175.394 41.6754ZM173.655 36.35C173.655 34.1786 174.08 31.7513 174.956 29.0593L173.054 28.4407C172.129 31.282 171.655 33.9214 171.655 36.35H173.655ZM174.956 29.0593C175.807 26.4421 177.189 24.1981 179.106 22.3129L177.703 20.8871C175.553 23.0019 174.002 25.5246 173.054 28.4407L174.956 29.0593ZM179.112 22.3071C180.94 20.479 183.26 19.55 186.155 19.55V17.55C182.782 17.55 179.936 18.6543 177.698 20.8929L179.112 22.3071ZM186.155 19.55C187.865 19.55 188.961 19.926 189.622 20.5034C190.258 21.0581 190.655 21.9422 190.655 23.35H192.655C192.655 21.5578 192.135 20.0419 190.937 18.9966C189.765 17.974 188.111 17.55 186.155 17.55V19.55ZM190.655 23.35C190.655 25.0127 190.184 26.5338 189.228 27.9372L190.881 29.0628C192.059 27.3329 192.655 25.4207 192.655 23.35H190.655ZM189.228 27.9372C188.256 29.365 186.961 30.5271 185.325 31.4227L186.285 33.1773C188.181 32.1395 189.72 30.7684 190.881 29.0628L189.228 27.9372ZM185.338 31.4158C183.695 32.2834 181.949 32.7782 180.088 32.9022L180.221 34.8978C182.361 34.7551 184.381 34.1833 186.272 33.1842L185.338 31.4158ZM179.157 33.8335C179.091 34.8279 179.055 35.5278 179.055 35.9H181.055C181.055 35.6055 181.085 34.9721 181.152 33.9665L179.157 33.8335ZM179.055 35.9C179.055 37.5723 179.329 39.038 180.178 39.9366L181.632 38.5634C181.347 38.262 181.055 37.4943 181.055 35.9H179.055ZM180.198 39.9571C181.036 40.7954 182.272 41.1 183.655 41.1V39.1C182.504 39.1 181.907 38.838 181.612 38.5429L180.198 39.9571ZM183.655 41.1C185.613 41.1 187.346 40.6449 188.804 39.6854L187.705 38.0146C186.63 38.7218 185.297 39.1 183.655 39.1V41.1ZM188.794 39.6919C190.196 38.7934 191.68 37.4573 193.247 35.7198L191.762 34.3802C190.263 36.0427 188.913 37.24 187.715 38.0081L188.794 39.6919ZM192.505 36.05H194.205V34.05H192.505V36.05ZM193.347 34.5355C189.763 40.5089 185.46 43.3 180.455 43.3V45.3C186.382 45.3 191.246 41.9244 195.062 35.5645L193.347 34.5355ZM180.609 32.4985C182.054 32.4204 183.403 31.9103 184.643 31.0087L183.467 29.3913C182.506 30.0897 181.522 30.4462 180.501 30.5015L180.609 32.4985ZM184.631 31.017C185.892 30.1271 186.895 28.993 187.634 27.6255L185.875 26.6745C185.281 27.7737 184.484 28.6729 183.478 29.383L184.631 31.017ZM187.624 27.6436C188.406 26.2657 188.805 24.7964 188.805 23.25H186.805C186.805 24.437 186.503 25.5676 185.885 26.6564L187.624 27.6436ZM188.805 23.25C188.805 22.4976 188.696 21.7656 188.346 21.1919C187.947 20.5378 187.303 20.2 186.555 20.2V22.2C186.624 22.2 186.636 22.2133 186.622 22.2056C186.606 22.1969 186.614 22.1931 186.638 22.2331C186.705 22.3427 186.805 22.6357 186.805 23.25H188.805ZM186.555 20.2C185.641 20.2 184.819 20.6048 184.103 21.2395C183.395 21.8677 182.743 22.7614 182.131 23.8644L183.879 24.8356C184.433 23.8386 184.956 23.1573 185.431 22.7355C185.899 22.3202 186.268 22.2 186.555 22.2V20.2ZM182.125 23.8751C180.936 26.0775 180.088 28.5611 179.572 31.3157L181.538 31.6843C182.021 29.1055 182.807 26.8225 183.885 24.8249L182.125 23.8751ZM194.144 43.4L193.645 44.2666L193.655 44.2724L193.665 44.2779L194.144 43.4ZM191.694 41L190.812 41.4706L190.815 41.4769L190.819 41.4831L191.694 41ZM191.694 35.05L192.526 35.6047L192.539 35.5849L192.552 35.5645L191.694 35.05ZM193.544 33.25L193.991 34.1444L194.267 34.0064L194.418 33.7367L193.544 33.25ZM196.944 26.2L197.87 26.5781L197.872 26.5736L196.944 26.2ZM199.694 18.45L199.56 17.459L198.93 17.5442L198.74 18.1511L199.694 18.45ZM207.094 17.45L208.093 17.411L208.05 16.3117L206.96 16.459L207.094 17.45ZM207.944 31.3L206.947 31.3803L206.948 31.383L207.944 31.3ZM206.644 40.65L207.427 41.2722L206.644 40.65ZM202.794 43.45L202.447 42.512L202.441 42.5145L202.794 43.45ZM199.694 39.25L199.034 38.4993L199.694 39.25ZM200.644 31.5L199.648 31.5874L199.649 31.5989L199.65 31.6104L200.644 31.5ZM199.994 23.85L200.991 23.7733L199.037 23.5593L199.994 23.85ZM195.944 33.3L195.056 32.8399L194.597 33.7253L195.482 34.1866L195.944 33.3ZM196.444 36.75L195.688 36.0951L195.676 36.1099L195.663 36.1253L196.444 36.75ZM193.544 36.85L194.452 36.4309L192.544 36.85H193.544ZM194.244 39.5L193.472 40.1357L193.483 40.1489L193.494 40.1616L194.244 39.5ZM198.194 43.3C196.716 43.3 195.541 43.0228 194.623 42.5221L193.665 44.2779C194.947 44.9772 196.472 45.3 198.194 45.3V43.3ZM194.643 42.5334C193.677 41.9772 193.002 41.301 192.57 40.5169L190.819 41.4831C191.453 42.6323 192.411 43.5561 193.645 44.2666L194.643 42.5334ZM192.576 40.5294C192.115 39.6649 191.894 38.7923 191.894 37.9H189.894C189.894 39.1411 190.206 40.3351 190.812 41.4706L192.576 40.5294ZM191.894 37.9C191.894 36.9681 192.118 36.2176 192.526 35.6047L190.862 34.4953C190.204 35.4824 189.894 36.6319 189.894 37.9H191.894ZM192.552 35.5645C192.972 34.8636 193.457 34.4114 193.991 34.1444L193.097 32.3556C192.164 32.822 191.416 33.5697 190.837 34.5355L192.552 35.5645ZM194.418 33.7367C195.736 31.3698 196.887 28.9836 197.87 26.5781L196.018 25.8219C195.068 28.1497 193.952 30.4635 192.671 32.7633L194.418 33.7367ZM197.872 26.5736C198.849 24.1464 199.775 21.5379 200.648 18.7489L198.74 18.1511C197.88 20.8955 196.972 23.4536 196.017 25.8264L197.872 26.5736ZM199.828 19.441L207.228 18.441L206.96 16.459L199.56 17.459L199.828 19.441ZM206.095 17.489C206.262 21.7715 206.546 26.4021 206.947 31.3803L208.941 31.2197C208.542 26.2646 208.259 21.6618 208.093 17.411L206.095 17.489ZM206.948 31.383C207.114 33.3805 207.194 34.7948 207.194 35.65H209.194C209.194 34.7052 209.108 33.2195 208.941 31.217L206.948 31.383ZM207.194 35.65C207.194 37.5095 206.725 38.9416 205.861 40.0278L207.427 41.2722C208.63 39.7584 209.194 37.8571 209.194 35.65H207.194ZM205.861 40.0278C204.94 41.187 203.806 42.0098 202.447 42.512L203.141 44.388C204.848 43.7569 206.282 42.713 207.427 41.2722L205.861 40.0278ZM202.441 42.5145C201.051 43.0396 199.637 43.3 198.194 43.3V45.3C199.884 45.3 201.537 44.9938 203.148 44.3855L202.441 42.5145ZM196.594 41.35C198.042 41.35 199.318 40.9129 200.355 40.0007L199.034 38.4993C198.403 39.0538 197.613 39.35 196.594 39.35V41.35ZM200.355 40.0007C201.489 39.0024 201.944 37.483 201.944 35.7H199.944C199.944 37.1836 199.566 38.0309 199.034 38.4993L200.355 40.0007ZM201.944 35.7C201.944 34.6448 201.839 33.202 201.638 31.3896L199.65 31.6104C199.849 33.398 199.944 34.7552 199.944 35.7H201.944ZM201.64 31.4126C201.307 27.6118 201.091 25.0671 200.991 23.7733L198.997 23.9267C199.098 25.2329 199.315 27.7882 199.648 31.5874L201.64 31.4126ZM199.037 23.5593C198.262 26.113 196.941 29.2035 195.056 32.8399L196.832 33.7601C198.748 30.0632 200.127 26.8537 200.951 24.1407L199.037 23.5593ZM195.482 34.1866C195.749 34.3264 195.893 34.4676 195.971 34.5867C196.045 34.6993 196.094 34.8419 196.094 35.05H198.094C198.094 34.4915 197.952 33.959 197.642 33.4883C197.337 33.024 196.905 32.6736 196.407 32.4134L195.482 34.1866ZM196.094 35.05C196.094 35.4313 195.972 35.768 195.688 36.0951L197.2 37.4049C197.783 36.732 198.094 35.9354 198.094 35.05H196.094ZM195.663 36.1253C195.451 36.3911 195.22 36.5 194.894 36.5V38.5C195.835 38.5 196.638 38.1089 197.225 37.3747L195.663 36.1253ZM194.894 36.5C194.638 36.5 194.512 36.4589 194.465 36.4365C194.446 36.4269 194.443 36.4224 194.448 36.4273C194.453 36.4326 194.455 36.4363 194.452 36.4309L192.636 37.2691C193.072 38.213 194.012 38.5 194.894 38.5V36.5ZM192.544 36.85C192.544 38.1453 192.79 39.3072 193.472 40.1357L195.016 38.8643C194.765 38.5595 194.544 37.9547 194.544 36.85H192.544ZM193.494 40.1616C194.252 41.0205 195.362 41.35 196.594 41.35V39.35C195.693 39.35 195.236 39.1129 194.994 38.8384L193.494 40.1616ZM219.914 10.6L220.892 10.8107L221.162 9.5599L219.883 9.6005L219.914 10.6ZM215.064 13L214.26 12.4056L214.256 12.4113L214.252 12.4171L215.064 13ZM213.764 23.55L212.858 23.9729L212.864 23.9851L212.87 23.9972L213.764 23.55ZM214.114 24.35V25.35H215.114V24.35H214.114ZM210.064 23.25L209.402 23.999L209.417 24.0124L209.433 24.0252L210.064 23.25ZM210.514 13.05L211.371 13.5667L211.375 13.5602L210.514 13.05ZM216.064 8.3L215.641 7.3941L215.636 7.39626L216.064 8.3ZM229.014 6.75L228.89 7.74227L228.904 7.74398L228.918 7.7453L229.014 6.75ZM238.614 6.5L239.563 6.81622L240.189 4.93799L238.306 5.54877L238.614 6.5ZM238.064 8.5L239.031 8.75767L239.033 8.74988L238.064 8.5ZM236.614 11.1L235.891 10.4095L235.89 10.4103L236.614 11.1ZM233.864 12.5V13.5H233.963L234.061 13.4806L233.864 12.5ZM226.864 11.55L227.093 10.5764L226.097 10.3429L225.886 11.3435L226.864 11.55ZM224.764 21.5L223.786 21.2935L223.531 22.5H224.764V21.5ZM232.064 21.5L233.042 21.7113L233.304 20.5H232.064V21.5ZM231.264 25.2V26.2H232.071L232.242 25.4113L231.264 25.2ZM223.964 25.2V24.2H223.157L222.987 24.9894L223.964 25.2ZM219.914 44V45H220.722L220.892 44.2106L219.914 44ZM212.714 44L211.737 43.7893L211.476 45H212.714V44ZM219.883 9.6005C217.512 9.67575 215.596 10.5988 214.26 12.4056L215.869 13.5944C216.8 12.3345 218.116 11.6576 219.946 11.5995L219.883 9.6005ZM214.252 12.4171C212.958 14.2213 212.414 17.1478 212.414 20.95H214.414C214.414 17.2189 214.971 14.8454 215.877 13.5829L214.252 12.4171ZM212.414 20.95C212.414 22.1922 212.524 23.2559 212.858 23.9729L214.671 23.1271C214.539 22.8441 214.414 22.1744 214.414 20.95H212.414ZM212.87 23.9972C212.984 24.2252 213.063 24.3908 213.111 24.5008C213.135 24.5571 213.146 24.5853 213.149 24.5928C213.15 24.5968 213.145 24.5834 213.139 24.5582C213.136 24.545 213.13 24.5222 213.126 24.4923C213.121 24.4646 213.114 24.4144 213.114 24.35H215.114C215.114 24.1407 215.046 23.9602 215.036 23.9321C215.01 23.8564 214.977 23.7763 214.943 23.6992C214.875 23.5426 214.778 23.3415 214.659 23.1028L212.87 23.9972ZM214.114 23.35C212.425 23.35 211.343 23.0016 210.696 22.4748L209.433 24.0252C210.586 24.965 212.204 25.35 214.114 25.35V23.35ZM210.727 22.501C210.163 22.0022 209.764 21.0907 209.764 19.5H207.764C207.764 21.376 208.232 22.9645 209.402 23.999L210.727 22.501ZM209.764 19.5C209.764 17.3063 210.303 15.3364 211.371 13.5667L209.658 12.5333C208.393 14.6302 207.764 16.9604 207.764 19.5H209.764ZM211.375 13.5602C212.419 11.8001 214.098 10.3379 216.493 9.20374L215.636 7.39626C212.964 8.66207 210.944 10.3666 209.654 12.5398L211.375 13.5602ZM216.488 9.20588C218.881 8.08706 221.974 7.5 225.814 7.5V5.5C221.788 5.5 218.381 6.11294 215.641 7.39412L216.488 9.20588ZM225.814 7.5C226.555 7.5 227.575 7.5778 228.89 7.74227L229.138 5.75772C227.788 5.58886 226.674 5.5 225.814 5.5V7.5ZM228.918 7.7453C231.318 7.97864 233.061 8.1 234.114 8.1V6.1C233.168 6.1 231.511 5.98802 229.111 5.75469L228.918 7.7453ZM234.114 8.1C235.951 8.1 237.561 7.89286 238.923 7.45122L238.306 5.54877C237.201 5.90713 235.812 6.1 234.114 6.1V8.1ZM237.666 6.18377C237.553 6.52298 237.361 7.2253 237.096 8.25012L239.033 8.74988C239.302 7.70803 239.476 7.07702 239.563 6.81622L237.666 6.18377ZM237.098 8.24234C236.874 9.08348 236.473 9.80038 235.891 10.4095L237.338 11.7905C238.156 10.933 238.722 9.91651 239.031 8.75766L237.098 8.24234ZM235.89 10.4103C235.395 10.93 234.68 11.317 233.668 11.5194L234.061 13.4806C235.382 13.2163 236.5 12.67 237.339 11.7897L235.89 10.4103ZM233.864 11.5C231.999 11.5 229.746 11.1987 227.093 10.5764L226.636 12.5236C229.383 13.1679 231.797 13.5 233.864 13.5V11.5ZM225.886 11.3435L223.786 21.2935L225.743 21.7065L227.843 11.7565L225.886 11.3435ZM224.764 22.5H232.064V20.5H224.764V22.5ZM231.087 21.2887L230.287 24.9887L232.242 25.4113L233.042 21.7113L231.087 21.2887ZM231.264 24.2H223.964V26.2H231.264V24.2ZM222.987 24.9894L218.937 43.7894L220.892 44.2106L224.942 25.4106L222.987 24.9894ZM219.914 43H212.714V45H219.914V43ZM213.692 44.2107L220.892 10.8107L218.937 10.3893L211.737 43.7893L213.692 44.2107ZM232.314 42.8L231.595 43.495L231.601 43.5011L231.607 43.5071L232.314 42.8ZM231.264 35.05L230.286 34.8411L230.283 34.8539L231.264 35.05ZM236.614 10L236.48 9.00901L235.783 9.10321L235.636 9.79114L236.614 10ZM244.014 9L244.992 9.20829L245.288 7.81875L243.88 8.00901L244.014 9ZM238.264 36L239.23 36.2577L239.236 36.2331L239.242 36.2083L238.264 36ZM238.514 39.05L237.807 39.7571L237.846 39.7963L237.889 39.8309L238.514 39.05ZM242.814 38.25L243.506 38.9714L243.514 38.9643L243.521 38.9571L242.814 38.25ZM244.614 35.05V34.05H243.857L243.651 34.7785L244.614 35.05ZM246.714 35.05L247.66 35.3741L248.113 34.05H246.714V35.05ZM241.964 42.4L242.512 43.2365L242.522 43.2298L241.964 42.4ZM236.214 43.3C234.841 43.3 233.808 42.8801 233.021 42.0929L231.607 43.5071C232.819 44.7199 234.386 45.3 236.214 45.3V43.3ZM233.033 42.105C232.312 41.3596 231.864 40.1542 231.864 38.3H229.864C229.864 40.4458 230.382 42.2404 231.595 43.495L233.033 42.105ZM231.864 38.3C231.864 37.5605 231.984 36.5498 232.244 35.2461L230.283 34.8539C230.01 36.2168 229.864 37.3728 229.864 38.3H231.864ZM232.242 35.2589L237.592 10.2089L235.636 9.79114L230.286 34.8411L232.242 35.2589ZM236.748 10.991L244.148 9.99099L243.88 8.00901L236.48 9.00901L236.748 10.991ZM243.036 8.79171L237.286 35.7917L239.242 36.2083L244.992 9.20829L243.036 8.79171ZM237.297 35.7423C237.14 36.3339 237.064 36.9545 237.064 37.6H239.064C239.064 37.1121 239.121 36.6661 239.23 36.2577L237.297 35.7423ZM237.064 37.6C237.064 38.3849 237.236 39.1864 237.807 39.7571L239.221 38.3429C239.191 38.3136 239.064 38.1484 239.064 37.6H237.064ZM237.889 39.8309C238.488 40.3101 239.301 40.45 240.114 40.45V38.45C239.46 38.45 239.206 38.3232 239.138 38.2691L237.889 39.8309ZM240.114 40.45C241.388 40.45 242.525 39.913 243.506 38.9714L242.121 37.5286C241.435 38.187 240.773 38.45 240.114 38.45V40.45ZM243.521 38.9571C244.492 37.9861 245.17 36.7618 245.576 35.3215L243.651 34.7785C243.324 35.9382 242.802 36.8473 242.107 37.5429L243.521 38.9571ZM244.614 36.05H246.714V34.05H244.614V36.05ZM245.768 34.7259C244.564 38.2397 243.075 40.4476 241.406 41.5702L242.522 43.2298C244.719 41.7524 246.397 39.0603 247.66 35.3741L245.768 34.7259ZM241.416 41.5635C239.61 42.7468 237.88 43.3 236.214 43.3V45.3C238.347 45.3 240.451 44.5865 242.512 43.2365L241.416 41.5635ZM250.144 15.15L250.851 14.4429L250.144 15.15ZM250.144 9.55L250.851 10.2571L250.858 10.2496L250.866 10.2419L250.144 9.55ZM255.744 9.55L255.022 10.2419L255.036 10.2573L255.052 10.272L255.744 9.55ZM255.744 15.15L255.052 14.428L255.044 14.4354L255.037 14.4429L255.744 15.15ZM245.644 42.85L244.925 43.545L244.931 43.5511L244.937 43.5571L245.644 42.85ZM244.594 35.05L243.615 34.8428L243.613 34.8549L243.611 34.8671L244.594 35.05ZM247.994 19V18H247.183L247.015 18.7928L247.994 19ZM255.194 19L256.172 19.2072L256.428 18H255.194V19ZM251.594 36L252.56 36.2577L252.567 36.2326L252.572 36.2072L251.594 36ZM257.694 38.1L258.194 38.9659L258.2 38.9624L257.694 38.1ZM261.544 34.7L262.341 35.3031L262.606 34.9531L262.528 34.5214L261.544 34.7ZM258.694 19V18H257.496L257.71 19.1786L258.694 19ZM265.744 19L266.728 18.8223L266.579 18H265.744V19ZM267.694 29.8L266.71 29.9777L267.063 31.9349L268.423 30.4839L267.694 29.8ZM271.194 25.3L270.334 24.7885H270.334L271.194 25.3ZM272.394 21.25L273.342 20.9338L273.079 20.142L272.252 20.26L272.394 21.25ZM269.744 20.6L268.92 21.1665L268.928 21.1791L268.937 21.1914L269.744 20.6ZM269.994 16.85L270.594 17.65L270.609 17.6384L270.624 17.6261L269.994 16.85ZM274.494 17.45L273.682 18.0343L274.494 17.45ZM273.694 25.85L272.839 25.331L272.836 25.3355L273.694 25.85ZM268.244 32.55L267.523 31.8567L267.169 32.2247L267.26 32.7272L268.244 32.55ZM268.694 35.05L267.71 35.2272L268.694 35.05ZM269.694 38.5L268.828 39.001L268.838 39.0177L268.848 39.034L269.694 38.5ZM273.444 39.15L274.441 39.2297L274.573 37.5782L273.05 38.2309L273.444 39.15ZM271.644 43L272.286 43.7662L272.289 43.7643L271.644 43ZM264.294 42.75L263.506 43.3656L263.516 43.3793L263.528 43.3926L264.294 42.75ZM262.144 37.45L263.115 37.2136L262.667 35.3709L261.4 36.7817L262.144 37.45ZM256.094 42.35L255.596 41.4825L255.591 41.4858L256.094 42.35ZM252.944 15.3C252.105 15.3 251.427 15.019 250.851 14.4429L249.437 15.8571C250.394 16.8144 251.583 17.3 252.944 17.3V15.3ZM250.851 14.4429C250.275 13.8668 249.994 13.1891 249.994 12.35H247.994C247.994 13.7109 248.479 14.8999 249.437 15.8571L250.851 14.4429ZM249.994 12.35C249.994 11.5109 250.275 10.8332 250.851 10.2571L249.437 8.84289C248.479 9.80014 247.994 10.9891 247.994 12.35H249.994ZM250.866 10.2419C251.445 9.63708 252.119 9.35 252.944 9.35V7.35C251.569 7.35 250.375 7.86291 249.422 8.8581L250.866 10.2419ZM252.944 9.35C253.769 9.35 254.442 9.63708 255.022 10.2419L256.466 8.8581C255.512 7.86291 254.319 7.35 252.944 7.35V9.35ZM255.052 10.272C255.657 10.8516 255.944 11.5248 255.944 12.35H257.944C257.944 10.9752 257.431 9.78172 256.436 8.82801L255.052 10.272ZM255.944 12.35C255.944 13.1752 255.657 13.8484 255.052 14.428L256.436 15.872C257.431 14.9183 257.944 13.7248 257.944 12.35H255.944ZM255.037 14.4429C254.461 15.019 253.783 15.3 252.944 15.3V17.3C254.305 17.3 255.494 16.8144 256.451 15.8571L255.037 14.4429ZM249.494 43.3C248.11 43.3 247.098 42.8902 246.351 42.1429L244.937 43.5571C246.123 44.7432 247.677 45.3 249.494 45.3V43.3ZM246.363 42.155C245.642 41.4096 245.194 40.2042 245.194 38.35H243.194C243.194 40.4958 243.712 42.2904 244.925 43.545L246.363 42.155ZM245.194 38.35C245.194 37.6771 245.313 36.6495 245.577 35.2329L243.611 34.8671C243.341 36.3172 243.194 37.4896 243.194 38.35H245.194ZM245.572 35.2572L248.972 19.2072L247.015 18.7928L243.615 34.8428L245.572 35.2572ZM247.994 20H255.194V18H247.994V20ZM254.215 18.7928L250.615 35.7928L252.572 36.2072L256.172 19.2072L254.215 18.7928ZM250.628 35.7423C250.47 36.3339 250.394 36.9545 250.394 37.6H252.394C252.394 37.1121 252.451 36.6661 252.56 36.2577L250.628 35.7423ZM250.394 37.6C250.394 38.413 250.652 39.1851 251.311 39.724C251.931 40.2314 252.75 40.4 253.594 40.4V38.4C252.971 38.4 252.69 38.2686 252.577 38.176C252.502 38.1149 252.394 37.987 252.394 37.6H250.394ZM253.594 40.4C255.06 40.4 256.6 39.8867 258.194 38.9659L257.193 37.2341C255.787 38.0467 254.594 38.4 253.594 38.4V40.4ZM258.2 38.9624C259.842 37.9985 261.226 36.7785 262.341 35.3031L260.746 34.0969C259.795 35.3549 258.612 36.4015 257.188 37.2376L258.2 38.9624ZM262.528 34.5214L259.678 18.8214L257.71 19.1786L260.56 34.8786L262.528 34.5214ZM258.694 20H265.744V18H258.694V20ZM264.76 19.1777L266.71 29.9777L268.678 29.6223L266.728 18.8223L264.76 19.1777ZM268.423 30.4839C269.957 28.8481 271.173 27.2906 272.053 25.8115L270.334 24.7885C269.548 26.1094 268.431 27.5519 266.964 29.1161L268.423 30.4839ZM272.053 25.8115C272.914 24.3642 273.444 23.0237 273.444 21.85H271.444C271.444 22.4763 271.14 23.4358 270.334 24.7885L272.053 25.8115ZM273.444 21.85C273.444 21.5725 273.435 21.2114 273.342 20.9338L271.445 21.5662C271.431 21.5253 271.428 21.5017 271.429 21.5081C271.43 21.5117 271.432 21.5273 271.435 21.558C271.44 21.6205 271.444 21.7156 271.444 21.85H273.444ZM272.252 20.26C272.023 20.2929 271.844 20.3166 271.714 20.3318C271.649 20.3395 271.601 20.3445 271.566 20.3475C271.526 20.351 271.524 20.35 271.544 20.35V22.35C271.733 22.35 272.103 22.3018 272.535 22.2399L272.252 20.26ZM271.544 20.35C270.91 20.35 270.668 20.1689 270.55 20.0086L268.937 21.1914C269.553 22.0311 270.511 22.35 271.544 22.35V20.35ZM270.568 20.0335C270.345 19.7089 270.194 19.2389 270.194 18.55H268.194C268.194 19.5277 268.41 20.4244 268.92 21.1665L270.568 20.0335ZM270.194 18.55C270.194 18.0951 270.34 17.8404 270.594 17.65L269.394 16.05C268.581 16.6596 268.194 17.5382 268.194 18.55H270.194ZM270.624 17.6261C270.951 17.3607 271.384 17.2 271.994 17.2V15.2C271.004 15.2 270.103 15.4726 269.363 16.0739L270.624 17.6261ZM271.994 17.2C272.754 17.2 273.279 17.4737 273.682 18.0343L275.305 16.8657C274.509 15.7596 273.367 15.2 271.994 15.2V17.2ZM273.682 18.0343C274.131 18.657 274.394 19.5036 274.394 20.65H276.394C276.394 19.1964 276.057 17.9097 275.305 16.8657L273.682 18.0343ZM274.394 20.65C274.394 22.0119 273.911 23.5658 272.839 25.331L274.549 26.369C275.743 24.4008 276.394 22.4881 276.394 20.65H274.394ZM272.836 25.3355C271.793 27.0746 270.035 29.2452 267.523 31.8567L268.964 33.2433C271.519 30.5881 273.395 28.292 274.551 26.3645L272.836 25.3355ZM267.26 32.7272L267.71 35.2272L269.678 34.8728L269.228 32.3728L267.26 32.7272ZM267.71 35.2272C268.01 36.8973 268.366 38.2024 268.828 39.001L270.559 37.999C270.288 37.531 269.977 36.536 269.678 34.8728L267.71 35.2272ZM268.848 39.034C269.497 40.0612 270.611 40.45 271.844 40.45V38.45C271.01 38.45 270.69 38.2055 270.539 37.966L268.848 39.034ZM271.844 40.45C272.555 40.45 273.226 40.3313 273.838 40.0691L273.05 38.2309C272.728 38.3687 272.333 38.45 271.844 38.45V40.45ZM272.447 39.0703C272.33 40.5274 271.822 41.5412 270.999 42.2357L272.289 43.7643C273.599 42.6588 274.29 41.1059 274.441 39.2297L272.447 39.0703ZM271.001 42.2338C270.16 42.9395 269.158 43.3 267.944 43.3V45.3C269.596 45.3 271.061 44.7938 272.286 43.7662L271.001 42.2338ZM267.944 43.3C266.62 43.3 265.705 42.8764 265.06 42.1074L263.528 43.3926C264.616 44.6903 266.135 45.3 267.944 45.3V43.3ZM265.082 42.1344C264.383 41.2393 263.706 39.6423 263.115 37.2136L261.172 37.6864C261.781 40.1911 262.538 42.1273 263.506 43.3656L265.082 42.1344ZM261.4 36.7817C259.703 38.6703 257.77 40.236 255.596 41.4825L256.591 43.2175C258.951 41.864 261.051 40.1631 262.888 38.1183L261.4 36.7817ZM255.591 41.4858C253.481 42.714 251.452 43.3 249.494 43.3V45.3C251.868 45.3 254.24 44.586 256.597 43.2142L255.591 41.4858Z" fill="#E5E5E5"/>
</g>
<defs>
<clipPath id="clip0_12_151">
<rect width="290" height="56" fill="white"/>
</clipPath>
</defs>
</svg>
