<svg width="35" height="35" viewBox="0 0 35 35" fill="none" xmlns="http://www.w3.org/2000/svg">
<path d="M17.5 0C7.8346 0 0 7.8346 0 17.5C0 27.1654 7.8346 35 17.5 35C27.1654 35 35 27.1654 35 17.5C35 7.8346 27.1654 0 17.5 0ZM17.5 32.2656C9.34493 32.2656 2.73438 25.6551 2.73438 17.5C2.73438 9.34493 9.34493 2.73438 17.5 2.73438C25.6551 2.73438 32.2656 9.34493 32.2656 17.5C32.2656 25.6551 25.6551 32.2656 17.5 32.2656Z" fill="#653FFF"/>
<path d="M24.176 16.2613L13.6368 10.1367C12.4854 9.4552 11.3818 10.0042 11.3818 11.3565V23.6452C11.3818 24.9953 12.4854 25.5454 13.6368 24.8628L24.0928 18.7393C25.2484 18.0578 25.3307 16.9427 24.176 16.2613Z" fill="#653FFF"/>
</svg>
