<svg width="40" height="40" viewBox="0 0 40 40" fill="none" xmlns="http://www.w3.org/2000/svg">
<g clip-path="url(#clip0_77_2)">
<path d="M30.6924 18.8195L14.4154 9.42107C13.9841 9.17133 13.4847 9.17133 13.0534 9.42107C12.6221 9.67082 12.3723 10.1248 12.3723 10.6015V29.3757C12.3723 29.8524 12.6221 30.3065 13.0534 30.5561C13.2577 30.6697 13.5074 30.7378 13.7344 30.7378C13.9614 30.7378 14.2111 30.6697 14.4154 30.5561L30.6697 21.1577C31.101 20.908 31.3508 20.454 31.3508 19.9773C31.3508 19.5005 31.101 19.0692 30.6924 18.8195ZM15.0965 27.0375V12.9625L27.2645 19.9999L15.0965 27.0375Z" fill="#653FFF"/>
<path d="M20 0C8.96712 0 0 8.96712 0 20C0 31.033 8.96712 40.0001 20 40.0001C31.033 40.0001 40.0001 31.033 40.0001 20C40.0001 8.96712 31.033 0 20 0ZM20 37.2758C10.4654 37.2758 2.72418 29.5346 2.72418 20C2.72418 10.4653 10.4654 2.72418 20 2.72418C29.5347 2.72418 37.2759 10.4654 37.2759 20C37.2759 29.5347 29.5347 37.2758 20 37.2758Z" fill="#653FFF"/>
</g>
<defs>
<clipPath id="clip0_77_2">
<rect width="40" height="40" fill="white"/>
</clipPath>
</defs>
</svg>
